<svg id="visual" viewBox="0 0 960 340" width="960" height="340" xmlns="http://www.w3.org/2000/svg" xmlns:xlink="http://www.w3.org/1999/xlink" version="1.1"><path d="M0 164L17.8 177.3C35.7 190.7 71.3 217.3 106.8 234.5C142.3 251.7 177.7 259.3 213.2 259C248.7 258.7 284.3 250.3 320 234.5C355.7 218.7 391.3 195.3 426.8 188.2C462.3 181 497.7 190 533.2 205.5C568.7 221 604.3 243 640 244.2C675.7 245.3 711.3 225.7 746.8 212.3C782.3 199 817.7 192 853.2 174.3C888.7 156.7 924.3 128.3 942.2 114.2L960 100L960 341L942.2 341C924.3 341 888.7 341 853.2 341C817.7 341 782.3 341 746.8 341C711.3 341 675.7 341 640 341C604.3 341 568.7 341 533.2 341C497.7 341 462.3 341 426.8 341C391.3 341 355.7 341 320 341C284.3 341 248.7 341 213.2 341C177.7 341 142.3 341 106.8 341C71.3 341 35.7 341 17.8 341L0 341Z" fill="#297EA6" stroke-linecap="round" stroke-linejoin="miter"></path></svg>