<svg id="visual" viewBox="0 0 960 300" width="960" height="300" xmlns="http://www.w3.org/2000/svg" xmlns:xlink="http://www.w3.org/1999/xlink" version="1.1"><path d="M0 37L107 37L107 28L213 28L213 43L320 43L320 76L427 76L427 61L533 61L533 34L640 34L640 52L747 52L747 40L853 40L853 70L960 70L960 58L960 0L960 0L853 0L853 0L747 0L747 0L640 0L640 0L533 0L533 0L427 0L427 0L320 0L320 0L213 0L213 0L107 0L107 0L0 0Z" fill="#c0dbdb"></path><path d="M0 193L107 193L107 139L213 139L213 121L320 121L320 196L427 196L427 190L533 190L533 184L640 184L640 112L747 112L747 121L853 121L853 148L960 148L960 172L960 56L960 68L853 68L853 38L747 38L747 50L640 50L640 32L533 32L533 59L427 59L427 74L320 74L320 41L213 41L213 26L107 26L107 35L0 35Z" fill="#7b949c"></path><path d="M0 235L107 235L107 244L213 244L213 241L320 241L320 256L427 256L427 229L533 229L533 265L640 265L640 238L747 238L747 235L853 235L853 283L960 283L960 232L960 170L960 146L853 146L853 119L747 119L747 110L640 110L640 182L533 182L533 188L427 188L427 194L320 194L320 119L213 119L213 137L107 137L107 191L0 191Z" fill="#405260"></path><path d="M0 301L107 301L107 301L213 301L213 301L320 301L320 301L427 301L427 301L533 301L533 301L640 301L640 301L747 301L747 301L853 301L853 301L960 301L960 301L960 230L960 281L853 281L853 233L747 233L747 236L640 236L640 263L533 263L533 227L427 227L427 254L320 254L320 239L213 239L213 242L107 242L107 233L0 233Z" fill="#111827"></path></svg>